HIERARCHY
ROOT Hips
{
	OFFSET 0.000000 89.005402 0.000000
	CHANNELS 6 Xposition Yposition Zposition Xrotation Yrotation Zrotation
	JOINT Spine
	{
		OFFSET 0.116900 10.681000 0.373400
		CHANNELS 3 Xrotation Yrotation Zrotation
		JOINT Spine1
		{
			OFFSET 0.000000 13.840401 0.053500
			CHANNELS 3 Xrotation Yrotation Zrotation
			JOINT Spine2
			{
				OFFSET 0.000000 14.712700 -0.366200
				CHANNELS 3 Xrotation Yrotation Zrotation
				JOINT Neck
				{
					OFFSET 0.000000 35.415497 -3.314200
					CHANNELS 3 Xrotation Yrotation Zrotation
					JOINT Head
					{
						OFFSET 0.000000 16.899200 1.218300
						CHANNELS 3 Xrotation Yrotation Zrotation
						JOINT HeadTop_End
						{
							OFFSET 0.000000 22.206207 2.192500
							CHANNELS 3 Xrotation Yrotation Zrotation
							End Site
							{
								OFFSET 0.000000 22.314178 0.000000
							}
						}
					}
				}
				JOINT LeftShoulder
				{
					OFFSET 12.896400 26.716293 -4.548400
					CHANNELS 3 Xrotation Yrotation Zrotation
					JOINT LeftArm
					{
						OFFSET 19.027000 -4.857010 -1.718400
						CHANNELS 3 Xrotation Yrotation Zrotation
						JOINT LeftForeArm
						{
							OFFSET 24.179897 0.000000 0.000000
							CHANNELS 3 Xrotation Yrotation Zrotation
							JOINT LeftHand
							{
								OFFSET 27.156403 0.000000 0.000000
								CHANNELS 3 Xrotation Yrotation Zrotation
								JOINT LeftHandIndex1
								{
									OFFSET 16.441200 0.000000 0.000000
									CHANNELS 3 Xrotation Yrotation Zrotation
									JOINT LeftHandIndex2
									{
										OFFSET 4.821899 0.000000 0.000000
										CHANNELS 3 Xrotation Yrotation Zrotation
										JOINT LeftHandIndex3
										{
											OFFSET 6.386497 0.000000 0.000000
											CHANNELS 3 Xrotation Yrotation Zrotation
											JOINT LeftHandIndex4
											{
												OFFSET 5.188988 0.000000 0.000000
												CHANNELS 3 Xrotation Yrotation Zrotation
												End Site
												{
													OFFSET -0.178703 5.185913 0.000177
												}
											}
										}
									}
								}
								JOINT LeftHandThumb1
								{
									OFFSET 6.534897 -5.032593 5.900300
									CHANNELS 3 Xrotation Yrotation Zrotation
									JOINT LeftHandThumb2
									{
										OFFSET 3.818176 -2.204422 2.204423
										CHANNELS 3 Xrotation Yrotation Zrotation
										JOINT LeftHandThumb3
										{
											OFFSET 3.252098 -1.877594 1.877601
											CHANNELS 3 Xrotation Yrotation Zrotation
											JOINT LeftHandThumb4
											{
												OFFSET 5.251778 -3.032120 3.032117
												CHANNELS 3 Xrotation Yrotation Zrotation
												End Site
												{
													OFFSET 0.000023 6.780014 0.000000
												}
											}
										}
									}
								}
							}
						}
					}
				}
				JOINT RightShoulder
				{
					OFFSET -12.896300 26.716293 -4.548400
					CHANNELS 3 Xrotation Yrotation Zrotation
					JOINT RightArm
					{
						OFFSET -19.027000 -4.857010 -1.718400
						CHANNELS 3 Xrotation Yrotation Zrotation
						JOINT RightForeArm
						{
							OFFSET -24.179897 0.000000 0.000000
							CHANNELS 3 Xrotation Yrotation Zrotation
							JOINT RightHand
							{
								OFFSET -27.156403 0.000000 0.000000
								CHANNELS 3 Xrotation Yrotation Zrotation
								JOINT RightHandThumb1
								{
									OFFSET -6.591202 -4.852203 5.988100
									CHANNELS 3 Xrotation Yrotation Zrotation
									JOINT RightHandThumb2
									{
										OFFSET -3.818176 -2.204422 2.204423
										CHANNELS 3 Xrotation Yrotation Zrotation
										JOINT RightHandThumb3
										{
											OFFSET -3.252098 -1.877594 1.877601
											CHANNELS 3 Xrotation Yrotation Zrotation
											JOINT RightHandThumb4
											{
												OFFSET -5.251778 -3.032120 3.032117
												CHANNELS 3 Xrotation Yrotation Zrotation
												End Site
												{
													OFFSET -0.000023 6.780014 0.000000
												}
											}
										}
									}
								}
								JOINT RightHandIndex1
								{
									OFFSET -16.029404 0.000000 0.000000
									CHANNELS 3 Xrotation Yrotation Zrotation
									JOINT RightHandIndex2
									{
										OFFSET -5.213303 0.000000 0.000000
										CHANNELS 3 Xrotation Yrotation Zrotation
										JOINT RightHandIndex3
										{
											OFFSET -6.386528 0.000000 0.000000
											CHANNELS 3 Xrotation Yrotation Zrotation
											JOINT RightHandIndex4
											{
												OFFSET -5.189026 0.000000 0.000000
												CHANNELS 3 Xrotation Yrotation Zrotation
												End Site
												{
													OFFSET 0.236702 5.183624 0.001972
												}
											}
										}
									}
								}
							}
						}
					}
				}
			}
		}
	}
	JOINT LeftUpLeg
	{
		OFFSET 14.073000 -7.904099 -1.463000
		CHANNELS 3 Xrotation Yrotation Zrotation
		JOINT LeftLeg
		{
			OFFSET -0.109806 -34.073280 4.093200
			CHANNELS 3 Xrotation Yrotation Zrotation
			JOINT LeftFoot
			{
				OFFSET 0.109806 -29.899420 -6.319000
				CHANNELS 3 Xrotation Yrotation Zrotation
				JOINT LeftToeBase
				{
					OFFSET 1.551100 -14.988700 20.535801
					CHANNELS 3 Xrotation Yrotation Zrotation
					JOINT LeftToe_End
					{
						OFFSET 0.221200 0.570800 13.248301
						CHANNELS 3 Xrotation Yrotation Zrotation
						End Site
						{
							OFFSET 0.000000 13.262435 0.000000
						}
					}
				}
			}
		}
	}
	JOINT RightUpLeg
	{
		OFFSET -13.839300 -7.904099 -1.463000
		CHANNELS 3 Xrotation Yrotation Zrotation
		JOINT RightLeg
		{
			OFFSET 0.109694 -34.073219 4.093300
			CHANNELS 3 Xrotation Yrotation Zrotation
			JOINT RightFoot
			{
				OFFSET -0.109694 -29.899384 -6.319200
				CHANNELS 3 Xrotation Yrotation Zrotation
				JOINT RightToeBase
				{
					OFFSET -1.551100 -14.988700 20.535801
					CHANNELS 3 Xrotation Yrotation Zrotation
					JOINT RightToe_End
					{
						OFFSET -0.221200 0.570900 13.248299
						CHANNELS 3 Xrotation Yrotation Zrotation
						End Site
						{
							OFFSET 0.000000 13.262440 0.000000
						}
					}
				}
			}
		}
	}
}
MOTION
Frames: 8
Frame Time: 0.033333
1.961234 84.386581 4.189588 -4.215159 1.761855 0.256203 2.040706 -0.007690 -0.310145 3.967102 -0.093158 0.603202 3.967505 -0.108152 0.596837 3.443262 7.660163 3.447731 -3.040890 44.263574 -4.768878 0.000000 0.000003 0.000000 0.608208 -3.218327 -12.016265 -18.340514 9.678610 -69.277086 0.000000 -5.421414 -0.000013 39.614056 -19.046729 -0.255547 0.817630 3.259395 -28.157533 0.196175 1.635117 -13.682548 0.128910 1.328802 -11.081893 0.000003 0.000001 0.000003 -13.216345 9.607122 12.782757 23.858648 28.710161 0.694222 10.625855 15.557103 2.912536 -0.000002 -0.000001 0.000003 1.120854 6.070404 12.058274 -13.118572 33.526930 56.909457 0.000046 113.893486 -0.000046 8.525403 5.837874 -3.685979 24.968318 -5.364114 -9.249301 -7.354613 -34.460008 7.388815 -6.085647 -11.565034 0.198999 0.000001 0.000001 0.000001 0.111549 -1.680620 23.016346 0.231170 -1.781511 14.786699 0.058022 -0.898221 7.391552 -0.000000 -0.000000 0.000001 -4.734931 12.718222 12.120247 24.445821 7.495730 0.525113 -11.618952 11.225729 -12.819332 -0.000039 -0.000000 0.000003 -0.000000 -0.000000 -0.000000 -7.947176 -12.929669 -13.973309 24.644188 -1.960117 0.041431 -11.865950 -1.839136 11.236617 -0.002761 -0.000000 -0.000001 -0.000000 -0.000000 0.000000 
1.951752 84.321190 4.138916 -4.028668 1.791856 0.207024 2.058367 0.010803 -0.317357 3.963051 -0.050778 0.629862 3.963785 -0.067541 0.622343 3.550524 7.875428 3.123786 -3.249089 45.010520 -5.112125 0.000000 -0.000001 -0.000000 0.632127 -3.528278 -12.012483 -18.896997 10.362901 -69.389169 -0.000002 -4.837880 0.000003 40.661943 -18.161907 -0.743092 0.811284 3.247552 -28.045865 0.196124 1.634894 -13.680637 0.128891 1.328696 -11.080933 0.000001 -0.000001 -0.000003 -13.222343 9.613886 12.772561 23.833435 28.695052 0.706398 10.614835 15.548068 2.916861 -0.000001 -0.000001 0.000001 1.082883 5.585290 12.048891 -8.801678 31.968861 56.594575 0.000073 113.647552 -0.000082 9.157069 5.383860 -4.132804 24.970280 -5.364566 -9.249050 -7.138622 -34.269556 7.109888 -6.086096 -11.564997 0.198917 -0.000002 -0.000000 0.000001 0.111548 -1.680621 23.016354 0.231183 -1.781504 14.786700 0.058018 -0.898223 7.391553 0.000001 -0.000001 -0.000000 -5.165736 12.550111 12.217813 24.829865 7.623961 0.520881 -11.732388 11.184075 -12.881741 -0.000039 0.000000 0.000003 -0.000000 0.000000 -0.000000 -8.303253 -12.883624 -13.947174 24.921735 -2.004481 0.038598 -11.953547 -1.848032 11.234322 -0.002756 -0.000002 -0.000001 -0.000000 -0.000002 0.000000 
1.934030 84.228119 4.092731 -3.844987 1.785421 0.138523 2.064085 0.042551 -0.317428 3.938866 0.010679 0.710182 3.940011 -0.008041 0.702650 3.718985 8.047066 2.766609 -3.383259 45.486816 -5.384935 0.000000 -0.000000 0.000000 0.661937 -3.973807 -12.021902 -19.237470 10.968920 -69.537562 -0.000003 -4.301360 -0.000015 41.442627 -17.325436 -0.940080 0.805043 3.235828 -27.935422 0.196079 1.634662 -13.678632 0.128864 1.328572 -11.079958 -0.000000 -0.000000 -0.000000 -13.228691 9.621064 12.761721 23.807434 28.679500 0.718984 10.603458 15.538761 2.921308 -0.000003 -0.000000 0.000001 1.036645 5.066659 12.039800 -5.091720 30.259821 56.823076 0.000079 112.956371 -0.000074 9.316967 5.108900 -4.369049 24.970757 -5.364680 -9.248963 -6.926308 -34.086868 6.839571 -6.086189 -11.565004 0.198870 -0.000001 0.000001 0.000000 0.111555 -1.680614 23.016346 0.231202 -1.781502 14.786687 0.058007 -0.898217 7.391558 0.000002 -0.000000 -0.000001 -5.669203 12.503844 12.373665 25.343299 7.600926 0.523248 -11.931237 11.192451 -12.927313 -0.000039 0.000002 0.000003 0.000000 0.000002 0.000000 -8.624460 -12.452120 -13.833080 25.321253 -2.396960 0.037498 -12.098395 -1.860347 11.329693 -0.002760 -0.000002 -0.000000 0.000000 -0.000002 -0.000000 
1.912858 84.144890 4.051328 -3.709110 1.757550 0.069926 2.089327 0.049700 -0.313471 3.956604 0.021911 0.797244 3.957989 0.001132 0.789515 3.717713 8.166195 2.500112 -3.408531 45.810793 -5.534168 -0.000000 -0.000002 -0.000000 0.691385 -4.277836 -12.029460 -19.418187 11.341612 -69.697374 0.000005 -3.895482 0.000020 41.545179 -16.814203 -0.842470 0.798887 3.224210 -27.826232 0.196017 1.634424 -13.676557 0.128849 1.328453 -11.078898 0.000002 -0.000003 -0.000002 -13.235389 9.628639 12.750317 23.780653 28.663473 0.731908 10.591753 15.529161 2.925880 -0.000003 -0.000000 -0.000000 1.015985 4.807359 12.035586 -2.081402 28.283730 57.388568 -0.000000 111.916823 -0.000005 9.081466 5.151362 -4.519474 24.970253 -5.364552 -9.249009 -6.718447 -33.912039 6.578115 -6.086094 -11.565003 0.198909 -0.000001 -0.000001 -0.000001 0.111551 -1.680621 23.016346 0.231175 -1.781506 14.786697 0.058008 -0.898221 7.391548 -0.000005 -0.000000 -0.000000 -6.086093 12.493990 12.582674 25.806753 7.954496 0.503556 -12.097237 10.805449 -13.084955 -0.000039 0.000000 0.000003 0.000000 0.000000 -0.000000 -8.997297 -12.533995 -13.809147 25.666364 -2.226615 0.032717 -12.233688 -1.878799 11.259095 -0.002764 0.000000 0.000001 -0.000000 -0.000002 -0.000000 
1.895767 84.078712 4.009744 -3.649307 1.694179 0.008314 2.157436 0.018402 -0.303771 4.062384 -0.039922 0.856902 4.063722 -0.062771 0.847895 3.543749 8.225326 2.366118 -3.462414 45.989805 -5.519023 0.000000 -0.000000 0.000000 0.716176 -4.270933 -12.029212 -19.529790 11.515326 -69.865759 0.000002 -3.713792 0.000010 40.919475 -16.814838 -0.701946 0.792836 3.212714 -27.718262 0.195955 1.634168 -13.674367 0.128821 1.328320 -11.077811 -0.000000 -0.000002 -0.000001 -13.242442 9.636627 12.738280 23.753115 28.646952 0.745189 10.579677 15.519305 2.930610 -0.000003 0.000002 0.000002 1.029297 4.827981 12.035829 0.102728 26.214051 58.109433 -0.000036 110.694936 0.000041 8.592807 5.502557 -4.656924 24.969971 -5.364495 -9.249073 -6.516272 -33.745113 6.325768 -6.086035 -11.565013 0.198925 -0.000002 -0.000001 0.000001 0.111557 -1.680623 23.016341 0.231175 -1.781509 14.786706 0.058032 -0.898217 7.391555 0.000002 -0.000000 0.000001 -6.346996 12.443516 12.700712 26.170121 7.932262 0.501569 -12.244566 10.892981 -13.125307 -0.000039 -0.000000 0.000003 0.000000 0.000000 0.000000 -9.243222 -12.515476 -13.766441 25.941581 -2.145689 0.030648 -12.329969 -1.881464 11.213329 -0.002759 -0.000002 0.000001 -0.000000 -0.000000 0.000000 
1.883521 84.023056 3.957713 -3.677416 1.552174 -0.047853 2.266002 -0.036130 -0.283479 4.254012 -0.145648 0.895092 4.255079 -0.170496 0.884097 3.379950 8.217004 2.319753 -3.633873 45.889008 -5.356027 0.000000 -0.000004 -0.000000 0.736115 -4.046001 -12.025734 -19.593277 11.589806 -70.036377 0.000001 -3.711517 0.000003 39.902942 -17.245319 -0.740482 0.786859 3.201340 -27.611506 0.195885 1.633900 -13.672131 0.128793 1.328191 -11.076680 -0.000004 0.000002 0.000003 -13.249858 9.645031 12.725676 23.724812 28.629979 0.758809 10.567282 15.509160 2.935438 0.000001 -0.000000 0.000002 1.055279 4.934204 12.037401 1.416706 24.364623 58.771012 0.000176 109.499742 -0.000189 8.004335 5.990909 -4.758692 24.970084 -5.364507 -9.249053 -6.320349 -33.586226 6.082866 -6.086055 -11.565012 0.198910 -0.000004 0.000001 -0.000000 0.111550 -1.680624 23.016349 0.231194 -1.781506 14.786695 0.058008 -0.898221 7.391555 -0.000002 0.000001 0.000001 -6.473216 12.478378 12.824240 26.477840 8.072169 0.502926 -12.374560 10.823321 -13.213542 -0.000039 0.000000 0.000003 0.000000 0.000000 0.000000 -9.403537 -12.430567 -13.718223 26.182912 -2.062443 0.031484 -12.389915 -1.878554 11.163653 -0.002755 0.000010 -0.000002 -0.000000 0.000000 0.000000 
1.875209 83.979561 3.883814 -3.801872 1.284445 -0.104396 2.390611 -0.089648 -0.250504 4.488109 -0.251073 0.938226 4.488842 -0.277723 0.925599 3.323693 8.144250 2.313132 -3.841679 45.447300 -5.102110 -0.000000 -0.000002 -0.000000 0.752092 -3.848750 -12.022594 -19.612695 11.592825 -70.172332 -0.000001 -3.666788 0.000001 39.079057 -17.810514 -0.898674 0.780975 3.190087 -27.505968 0.195827 1.633620 -13.669762 0.128772 1.328056 -11.075495 -0.000002 0.000001 0.000002 -13.257618 9.653810 12.712463 23.695757 28.612540 0.772814 10.554572 15.498724 2.940354 -0.000003 0.000001 -0.000000 1.071071 4.981922 12.038091 1.944967 22.943348 59.176581 0.000013 108.515641 -0.000004 7.436043 6.428680 -4.782039 24.970190 -5.364533 -9.249028 -6.131074 -33.435443 5.849907 -6.086071 -11.564988 0.198909 -0.000000 -0.000001 0.000001 0.111560 -1.680622 23.016354 0.231177 -1.781516 14.786694 0.058014 -0.898220 7.391553 0.000001 -0.000001 -0.000002 -6.418872 12.484457 12.887962 26.719353 8.120646 0.509254 -12.488512 11.020916 -13.269595 -0.000039 0.000000 0.000003 -0.000000 0.000000 -0.000000 -9.524962 -12.386971 -13.684630 26.386704 -1.822916 0.038343 -12.396323 -1.848686 11.055150 -0.002759 -0.000003 -0.000001 -0.000000 -0.000000 -0.000000 
1.872938 83.953072 3.784971 -4.006352 0.867529 -0.167868 2.500390 -0.129276 -0.211121 4.706911 -0.333416 1.002018 4.707319 -0.361489 0.988852 3.343185 8.032691 2.310037 -3.947382 44.805925 -4.823328 -0.000000 0.000000 0.000000 0.763933 -3.857100 -12.023098 -19.617492 11.521179 -70.234316 0.000001 -3.339797 -0.000000 38.934623 -18.249412 -0.954321 0.775181 3.178953 -27.401648 0.195748 1.633333 -13.667328 0.128734 1.327904 -11.074283 0.000000 -0.000001 0.000003 -13.265739 9.663014 12.698640 23.665926 28.594628 0.787136 10.541525 15.488038 2.945441 -0.000000 -0.000000 0.000002 1.068189 4.977446 12.038038 1.848891 22.008697 59.227671 0.000055 107.811988 -0.000053 6.954460 6.714728 -4.725657 24.970183 -5.364552 -9.249048 -5.948821 -33.292801 5.627392 -6.086056 -11.564986 0.198913 -0.000000 -0.000000 -0.000001 0.111556 -1.680613 23.016349 0.231156 -1.781510 14.786699 0.058024 -0.898221 7.391550 0.000001 -0.000000 0.000001 -6.195696 12.497895 12.907616 26.878842 8.202029 0.522048 -12.572831 11.351313 -13.329051 -0.000039 0.000002 0.000003 -0.000000 0.000002 0.000000 -9.619498 -12.355853 -13.650457 26.528182 -1.406621 0.053899 -12.324309 -1.821764 10.876283 -0.002758 0.000002 0.000002 0.000000 0.000000 0.000000 
